<mxfile host="app.diagrams.net" modified="2024-05-31T09:00:11.163Z" agent="Mozilla/5.0 (Windows NT 10.0; Win64; x64) AppleWebKit/537.36 (KHTML, like Gecko) Chrome/125.0.0.0 Safari/537.36" version="24.4.10" etag="dBSeIOas6LQzKdvsoGSu" type="github">
  <diagram name="第 1 页" id="35xNa8tj0l9Oa1YcU8H7">
    <mxGraphModel>
      <root>
        <mxCell id="0" />
        <mxCell id="1" parent="0" />
      </root>
    </mxGraphModel>
  </diagram>
</mxfile>
